<?xml version="1.0" encoding="iso-8859-1"?>
<!-- Generator: Adobe Illustrator 19.0.0, SVG Export Plug-In . SVG Version: 6.00 Build 0)  -->
<svg version="1.1" id="Layer_1" xmlns="http://www.w3.org/2000/svg" xmlns:xlink="http://www.w3.org/1999/xlink" x="0px" y="0px"
	 viewBox="0 0 492.313 492.313" style="enable-background:new 0 0 492.313 492.313;" xml:space="preserve">
<g>
	<g>
		<rect x="81.982" y="232.962" width="144.276" height="19.692"/>
	</g>
</g>
<g>
	<g>
		<rect x="51.931" y="280.057" width="204.396" height="19.692"/>
	</g>
</g>
<g>
	<g>
		<rect x="81.982" y="327.19" width="144.276" height="19.692"/>
	</g>
</g>
<g>
	<g>
		<rect x="235.995" y="87.692" width="204.386" height="19.692"/>
	</g>
</g>
<g>
	<g>
		<rect x="235.995" y="134.777" width="204.386" height="19.692"/>
	</g>
</g>
<g>
	<g>
		<rect x="324.217" y="181.861" width="86.105" height="19.692"/>
	</g>
</g>
<g>
	<g>
		<path d="M458.418,29.219H217.957c-18.688,0-33.894,15.202-33.894,33.894v111.375H33.894C15.207,174.488,0,189.69,0,208.382
			v161.231c0,18.683,15.207,33.885,33.894,33.885h22.803l0.524,59.596l90.572-59.596h126.558c18.692,0,33.894-15.202,33.894-33.885
			V258.228h36.269l90.567,59.596l0.529-59.596h22.808c18.692,0,33.894-15.202,33.894-33.894V63.113
			C492.313,44.421,477.111,29.219,458.418,29.219z M288.553,369.613c0,7.827-6.375,14.192-14.202,14.192H141.899l-65.303,42.962
			l-0.38-42.962H33.894c-7.832,0-14.202-6.365-14.202-14.192V208.382c0-7.827,6.37-14.202,14.202-14.202h240.457
			c7.827,0,14.202,6.375,14.202,14.202V369.613z M472.62,224.334c0,7.827-6.375,14.202-14.202,14.202h-42.327l-0.375,42.962
			l-65.298-42.962h-42.173v-30.154c0-18.692-15.202-33.894-33.894-33.894h-70.596V63.113c0-7.827,6.37-14.202,14.202-14.202h240.462
			c7.827,0,14.202,6.375,14.202,14.202V224.334z"/>
	</g>
</g>
<g>
</g>
<g>
</g>
<g>
</g>
<g>
</g>
<g>
</g>
<g>
</g>
<g>
</g>
<g>
</g>
<g>
</g>
<g>
</g>
<g>
</g>
<g>
</g>
<g>
</g>
<g>
</g>
<g>
</g>
</svg>
